<mxfile host="app.diagrams.net" modified="2023-06-08T14:34:38.926Z" agent="Mozilla/5.0 (X11; Ubuntu; Linux x86_64; rv:109.0) Gecko/20100101 Firefox/113.0" etag="dvGpESXJXamEUV37ShoX" version="21.3.4" type="github">
  <diagram name="Page-1" id="vpklXvEJsiAHiJjof8bC">
    <mxGraphModel dx="435" dy="751" grid="1" gridSize="10" guides="1" tooltips="1" connect="1" arrows="1" fold="1" page="1" pageScale="1" pageWidth="827" pageHeight="1169" math="0" shadow="0">
      <root>
        <mxCell id="0" />
        <mxCell id="1" parent="0" />
        <mxCell id="TnsGR5caMrM5LjYhHf8N-1" value="&amp;lt;&amp;lt;Interface&amp;gt;&amp;gt;&lt;br&gt;IGestioneAssistenza" style="swimlane;fontStyle=1;align=center;verticalAlign=top;childLayout=stackLayout;horizontal=1;startSize=40;horizontalStack=0;resizeParent=1;resizeParentMax=0;resizeLast=0;collapsible=1;marginBottom=0;whiteSpace=wrap;html=1;fillColor=#60a917;fontColor=#ffffff;strokeColor=#2D7600;" parent="1" vertex="1">
          <mxGeometry x="60" y="180" width="260" height="180" as="geometry" />
        </mxCell>
        <mxCell id="TnsGR5caMrM5LjYhHf8N-2" value="" style="line;strokeWidth=1;fillColor=none;align=left;verticalAlign=middle;spacingTop=-1;spacingLeft=3;spacingRight=3;rotatable=0;labelPosition=right;points=[];portConstraint=eastwest;strokeColor=inherit;" parent="TnsGR5caMrM5LjYhHf8N-1" vertex="1">
          <mxGeometry y="40" width="260" height="8" as="geometry" />
        </mxCell>
        <mxCell id="TnsGR5caMrM5LjYhHf8N-3" value="&lt;div align=&quot;center&quot;&gt;+getProfessionistaAttesa()&lt;/div&gt;&lt;div align=&quot;center&quot;&gt;+getUtentiBloccati()&lt;/div&gt;&lt;div align=&quot;center&quot;&gt;+getSegnalazioni()&lt;/div&gt;&lt;div align=&quot;center&quot;&gt;+bloccaUtente(Username)&lt;/div&gt;&lt;div align=&quot;center&quot;&gt;+sbloccaUtente(Username)&lt;/div&gt;&lt;div align=&quot;center&quot;&gt;+rimuoviCommento(idCommento)&lt;/div&gt;&lt;div align=&quot;center&quot;&gt;+rimuoviPost(idPost)&lt;/div&gt;&lt;div align=&quot;center&quot;&gt;+accettaProfessionista(Username)&lt;br&gt;&lt;/div&gt;" style="text;strokeColor=none;fillColor=none;align=center;verticalAlign=top;spacingLeft=4;spacingRight=4;overflow=hidden;rotatable=0;points=[[0,0.5],[1,0.5]];portConstraint=eastwest;whiteSpace=wrap;html=1;" parent="TnsGR5caMrM5LjYhHf8N-1" vertex="1">
          <mxGeometry y="48" width="260" height="132" as="geometry" />
        </mxCell>
      </root>
    </mxGraphModel>
  </diagram>
</mxfile>
